<svg width="105" height="173" viewBox="0 0 105 173" fill="none" xmlns="http://www.w3.org/2000/svg">
<path d="M33.7 88V86.2H38.3L27 63L25.1 63.5V86.2H29.7V88H1V86.2H6.5V14.8H0.6V13H25.1V61.5L26.7 60.9L49.2 42.2H39.8V40.4H59.5V42.2H52.5L40.6 52.3L57.9 86.2H61.5V88H33.7Z" fill="white"/>
<path d="M77.5 119.9C80.8333 119.9 83.7667 119 86.3 117.2C88.9 115.4 90.2 112.7 90.2 109.1C90.2 105.433 88.8 102.633 86 100.7C83.2667 98.7667 79.3333 97.1 74.2 95.7C69.1333 94.2333 65.4333 92.9667 63.1 91.9C60.8333 90.8333 58.6667 89.4333 56.6 87.7C52.4667 84.2333 50.4 78.8667 50.4 71.6C50.4 65.6667 52.5 60.5667 56.7 56.3C60.9667 52.0333 66.7667 49.9 74.1 49.9C77.6333 49.9 81.3 50.4333 85.1 51.5C88.9667 52.5 91.3667 53 92.3 53C93.2333 53 94.0667 52.3333 94.8 51H95.9L96.6 71.2H95C91.8 65.4 88.4333 60.7667 84.9 57.3C81.4333 53.7667 77.6333 52 73.5 52C69.4333 52 66.2667 52.9667 64 54.9C61.7333 56.7667 60.6 59.3 60.6 62.5C60.6 65.6333 61.9333 68.0667 64.6 69.8C67.3333 71.4667 70.6667 72.8333 74.6 73.9C78.5333 74.9667 81.1 75.7 82.3 76.1C83.5667 76.5 85.1 77.0667 86.9 77.8C88.7667 78.4667 90.2667 79.2 91.4 80C92.6 80.7333 93.8333 81.7 95.1 82.9C96.4333 84.0333 97.4667 85.3 98.2 86.7C100 89.9 100.9 93.7 100.9 98.1C100.9 105.3 98.6333 111.1 94.1 115.5C89.6333 119.833 83.7333 122 76.4 122C72.6 122 68.2333 121.5 63.3 120.5C58.4333 119.5 55.7333 119 55.2 119C54.2667 119 53.3667 120 52.5 122H51.1L50.1 98.2H51.8C54.7333 104 58.4667 109.067 63 113.4C67.6 117.733 72.4333 119.9 77.5 119.9Z" fill="white"/>
<path d="M15 86H39.1V122.6C40.1667 119.533 41.8 117.067 44 115.2C46.2 113.333 49.5333 112.4 54 112.4C64.3333 112.4 69.5 117.967 69.5 129.1V159.2H75.1V161H46.8V159.2H50.9V126.7C50.9 122.7 50.6333 120.133 50.1 119C49.5667 117.8 48.6 117.2 47.2 117.2C45.0667 117.2 43.1667 118.6 41.5 121.4C39.9 124.2 39.1 127.6 39.1 131.6V159.2H43.4V161H15V159.2H20.5V87.8H15V86Z" fill="white"/>
</svg>
